# xmcd CD database file
#
# Track frame offsets:
#	150
#	21542
#	43575
#	64218
#	82674
#	101377
#	115291
#	151646
#	172038
#	185555
#	205982
#	221630
#
# Disc length: 3657 seconds
#
# Revision: 0
# Processed by: cddbd v1.5.2PL0 Copyright (c) Steve Scherf et al.
# Submitted via: CDex 1.60beta1
#
DISCID=a00e470c
DTITLE=Patti Smith - Gung Ho
DYEAR=1900
DGENRE=Blues
TTITLE0=Lo and Beholden
TTITLE1=Boy Cried Wolf
TTITLE2=Persuasion
TTITLE3=Gone Pie
TTITLE4=China Bird
TTITLE5=Glitter in Their Eyes
TTITLE6=Strange Messengers
TTITLE7=Grateful
TTITLE8=Upright Come
TTITLE9=New Party
TTITLE10=Libbie's Song
TTITLE11=Gung Ho
EXTD=
EXTT0=
EXTT1=
EXTT2=
EXTT3=
EXTT4=
EXTT5=
EXTT6=
EXTT7=
EXTT8=
EXTT9=
EXTT10=
EXTT11=
PLAYORDER=
